<svg width="32" height="32" viewBox="0 0 32 32" fill="none" xmlns="http://www.w3.org/2000/svg">
<circle cx="15.5" cy="15.5" r="0.5" fill="#F5F6F7"/>
<path d="M19.5768 7.91058L17.9108 9.57659C17.7596 9.72744 17.666 9.93605 17.666 10.1665C17.666 10.3902 17.7542 10.5934 17.8977 10.7431L17.9101 10.7558L19.5768 12.4224C19.9022 12.7479 20.4298 12.7479 20.7553 12.4224C21.0807 12.097 21.0807 11.5694 20.7553 11.2439L20.5112 10.9998L21.8327 10.9998C22.2929 10.9998 22.666 11.3729 22.666 11.8332V16.8332C22.666 17.2934 23.0391 17.6665 23.4994 17.6665C23.9596 17.6665 24.3327 17.2934 24.3327 16.8332L24.3327 11.8332C24.3327 10.4525 23.2134 9.33317 21.8327 9.33317H20.5112L20.7553 9.08909C21.0807 8.76366 21.0807 8.23602 20.7553 7.91058C20.4298 7.58514 19.9022 7.58514 19.5768 7.91058Z" fill="#005098"/>
<path d="M10.166 21.8332H11.4875L11.2434 22.0772C10.918 22.4027 10.918 22.9303 11.2434 23.2558C11.5689 23.5812 12.0965 23.5812 12.4219 23.2558L14.0886 21.5891C14.2449 21.4328 14.3327 21.2208 14.3327 20.9998C14.3327 20.7788 14.2449 20.5669 14.0886 20.4106L12.4219 18.7439C12.0965 18.4185 11.5689 18.4185 11.2434 18.7439C10.918 19.0694 10.918 19.597 11.2434 19.9224L11.4875 20.1665H10.166C9.70578 20.1665 9.33268 19.7934 9.33268 19.3332L9.33268 11.8332C9.33268 11.3729 9.70578 10.9998 10.166 10.9998H11.8327C12.2929 10.9998 12.666 10.6267 12.666 10.1665C12.666 9.70627 12.2929 9.33317 11.8327 9.33317H10.166C8.7853 9.33317 7.66602 10.4525 7.66602 11.8332L7.66602 19.3332C7.66602 20.7139 8.7853 21.8332 10.166 21.8332Z" fill="#005098"/>
<path d="M20.6527 21.7069C20.473 21.8945 20.2292 21.9998 19.975 21.9998C19.7209 21.9998 19.4771 21.8945 19.2974 21.7069C19.1177 21.5194 19.0167 21.2651 19.0167 20.9998C19.0167 20.7346 19.1177 20.4803 19.2974 20.2927C19.4771 20.1052 19.7209 19.9998 19.975 19.9998C20.2292 19.9998 20.473 20.1052 20.6527 20.2927C20.8324 20.4803 20.9334 20.7346 20.9334 20.9998C20.9334 21.2651 20.8324 21.5194 20.6527 21.7069Z" fill="#005098"/>
<path fill-rule="evenodd" clip-rule="evenodd" d="M15.5827 20.9998C16.1691 19.0679 17.9137 17.6665 19.975 17.6665C22.0364 17.6665 23.781 19.0679 24.3674 20.9998C23.781 22.9317 22.0364 24.3332 19.975 24.3332C17.9137 24.3332 16.1691 22.9317 15.5827 20.9998ZM21.8163 20.9998C21.8163 21.505 21.6223 21.9895 21.277 22.3467C20.9317 22.7039 20.4634 22.9046 19.975 22.9046C19.4867 22.9046 19.0184 22.7039 18.6731 22.3467C18.3278 21.9895 18.1338 21.505 18.1338 20.9998C18.1338 20.4947 18.3278 20.0102 18.6731 19.653C19.0184 19.2958 19.4867 19.0951 19.975 19.0951C20.4634 19.0951 20.9317 19.2958 21.277 19.653C21.6223 20.0102 21.8163 20.4947 21.8163 20.9998Z" fill="#005098"/>
<path d="M15.166 10.9998C14.7058 10.9998 14.3327 10.6267 14.3327 10.1665C14.3327 9.70627 14.7058 9.33317 15.166 9.33317C15.6263 9.33317 15.9993 9.70627 15.9993 10.1665C15.9993 10.6267 15.6263 10.9998 15.166 10.9998Z" fill="#005098"/>
</svg>
