<svg width="20" height="20" viewBox="0 0 20 20" fill="none" xmlns="http://www.w3.org/2000/svg">
<g id="robot/eraser">
<path id="icon" fill-rule="evenodd" clip-rule="evenodd" d="M10.488 2.49997C11.1389 1.84909 12.1941 1.84909 12.845 2.49997L17.4998 7.15484C18.1507 7.80571 18.1507 8.86098 17.4998 9.51185L12.4998 14.5119C12.1873 14.8244 11.7634 15 11.3213 15H5.34502C4.90298 15 4.47905 14.8244 4.16649 14.5118L2.49985 12.8451C1.849 12.1943 1.84901 11.139 2.49987 10.4881L10.488 2.49997ZM7.08316 8.26185L3.67839 11.6666L5.34502 13.3333L11.3213 13.3333L11.738 12.9167L7.08316 8.26185ZM8.26167 7.08333L12.9165 11.7382L16.3213 8.33334L11.6665 3.67848L8.26167 7.08333ZM4.99987 16.6667C4.99987 16.2064 5.37297 15.8333 5.83321 15.8333H17.4999C17.9601 15.8333 18.3332 16.2064 18.3332 16.6667C18.3332 17.1269 17.9601 17.5 17.4999 17.5H5.83321C5.37297 17.5 4.99987 17.1269 4.99987 16.6667Z" fill="#005098"/>
</g>
</svg>
