<svg width="16" height="16" viewBox="0 0 16 16" fill="none" xmlns="http://www.w3.org/2000/svg">
<g id="robot/layers" clip-path="url(#clip0_486_32208)">
<g id="icon">
<path fill-rule="evenodd" clip-rule="evenodd" d="M7.70331 0.737038C7.89099 0.643196 8.11191 0.643196 8.29959 0.737038L14.9663 4.07037C15.1921 4.1833 15.3348 4.41414 15.3348 4.66666C15.3348 4.91917 15.1921 5.15001 14.9663 5.26294L8.29959 8.59627C8.11191 8.69012 7.89099 8.69012 7.70331 8.59627L1.03664 5.26294C0.810783 5.15001 0.668115 4.91917 0.668115 4.66666C0.668115 4.41414 0.810783 4.1833 1.03664 4.07037L7.70331 0.737038ZM2.82549 4.66666L8.00145 7.25463L13.1774 4.66666L8.00145 2.07868L2.82549 4.66666Z" fill="white"/>
<path fill-rule="evenodd" clip-rule="evenodd" d="M0.738497 11.0352C0.903156 10.7059 1.3036 10.5724 1.63292 10.737L8.00145 13.9213L14.37 10.737C14.6993 10.5724 15.0997 10.7059 15.2644 11.0352C15.4291 11.3645 15.2956 11.7649 14.9663 11.9296L8.29959 15.2629C8.11191 15.3568 7.89099 15.3568 7.70331 15.2629L1.03664 11.9296C0.70732 11.7649 0.573837 11.3645 0.738497 11.0352Z" fill="white"/>
<path fill-rule="evenodd" clip-rule="evenodd" d="M0.738497 7.70185C0.903156 7.37253 1.3036 7.23905 1.63292 7.4037L8.00145 10.588L14.37 7.4037C14.6993 7.23905 15.0997 7.37253 15.2644 7.70185C15.4291 8.03117 15.2956 8.43161 14.9663 8.59627L8.29959 11.9296C8.11191 12.0234 7.89099 12.0234 7.70331 11.9296L1.03664 8.59627C0.70732 8.43161 0.573837 8.03117 0.738497 7.70185Z" fill="white"/>
</g>
</g>
<defs>
<clipPath id="clip0_486_32208">
<rect width="16" height="16" fill="white"/>
</clipPath>
</defs>
</svg>
