<svg width="16" height="16" viewBox="0 0 24 24" fill="none" xmlns="http://www.w3.org/2000/svg">
	<path d="M10.2426 2.48532C11.0237 1.70427 12.29 1.70427 13.0711 2.48532L21.2426 10.6569C22.0237 11.4379 22.0237 12.7043 21.2426 13.4853L13.0711 21.6569C12.29 22.4379 11.0237 22.4379 10.2427 21.6569L2.07108 13.4853C1.29003 12.7043 1.29003 11.4379 2.07108 10.6569L10.2426 2.48532Z" fill="#2E4052"/>
	<path fill-rule="evenodd" clip-rule="evenodd" d="M20.5355 11.364L12.364 3.19243C11.9734 2.80191 11.3403 2.8019 10.9498 3.19243L2.77818 11.364C2.38766 11.7545 2.38766 12.3877 2.77818 12.7782L10.9498 20.9498C11.3403 21.3403 11.9734 21.3403 12.364 20.9498L20.5355 12.7782C20.9261 12.3877 20.9261 11.7545 20.5355 11.364ZM13.0711 2.48532C12.29 1.70427 11.0237 1.70427 10.2426 2.48532L2.07108 10.6569C1.29003 11.4379 1.29003 12.7043 2.07108 13.4853L10.2427 21.6569C11.0237 22.4379 12.29 22.4379 13.0711 21.6569L21.2426 13.4853C22.0237 12.7043 22.0237 11.4379 21.2426 10.6569L13.0711 2.48532Z" fill="white"/>
</svg>
