<svg width="20" height="20" viewBox="0 0 20 20" fill="none" xmlns="http://www.w3.org/2000/svg">
<g id="robot/text">
<g id="icon">
<path fill-rule="evenodd" clip-rule="evenodd" d="M2.5 3.33333C2.5 2.8731 2.8731 2.5 3.33333 2.5H16.6667C17.1269 2.5 17.5 2.8731 17.5 3.33333V5.83333C17.5 6.29357 17.1269 6.66667 16.6667 6.66667C16.2064 6.66667 15.8333 6.29357 15.8333 5.83333V4.16667H4.16667V5.83333C4.16667 6.29357 3.79357 6.66667 3.33333 6.66667C2.8731 6.66667 2.5 6.29357 2.5 5.83333V3.33333Z" fill="#005098"/>
<path fill-rule="evenodd" clip-rule="evenodd" d="M6.66667 16.6667C6.66667 16.2064 7.03976 15.8333 7.5 15.8333H12.5C12.9602 15.8333 13.3333 16.2064 13.3333 16.6667C13.3333 17.1269 12.9602 17.5 12.5 17.5H7.5C7.03976 17.5 6.66667 17.1269 6.66667 16.6667Z" fill="#005098"/>
<path fill-rule="evenodd" clip-rule="evenodd" d="M10 2.5C10.4602 2.5 10.8333 2.8731 10.8333 3.33333V16.6667C10.8333 17.1269 10.4602 17.5 10 17.5C9.53976 17.5 9.16667 17.1269 9.16667 16.6667V3.33333C9.16667 2.8731 9.53976 2.5 10 2.5Z" fill="#005098"/>
</g>
</g>
</svg>
