<svg width="20" height="20" viewBox="0 0 20 20" fill="none" xmlns="http://www.w3.org/2000/svg">
<path d="M9.16797 5.83335C9.62821 5.83335 10.0013 6.20645 10.0013 6.66669V8.33335H11.668C12.1282 8.33335 12.5013 8.70645 12.5013 9.16669C12.5013 9.62693 12.1282 10 11.668 10H10.0013V11.6667C10.0013 12.1269 9.62821 12.5 9.16797 12.5C8.70773 12.5 8.33464 12.1269 8.33464 11.6667V10H6.66797C6.20773 10 5.83464 9.62693 5.83464 9.16669C5.83464 8.70645 6.20773 8.33335 6.66797 8.33335H8.33464V6.66669C8.33464 6.20645 8.70773 5.83335 9.16797 5.83335Z" fill="#005098"/>
<path fill-rule="evenodd" clip-rule="evenodd" d="M9.16797 1.66669C5.02583 1.66669 1.66797 5.02455 1.66797 9.16669C1.66797 13.3088 5.02583 16.6667 9.16797 16.6667C10.9388 16.6667 12.5663 16.053 13.8494 15.0266L16.912 18.0893C17.2375 18.4147 17.7651 18.4147 18.0906 18.0893C18.416 17.7638 18.416 17.2362 18.0906 16.9108L15.0279 13.8481C16.0542 12.565 16.668 10.9375 16.668 9.16669C16.668 5.02455 13.3101 1.66669 9.16797 1.66669ZM3.33464 9.16669C3.33464 5.94503 5.94631 3.33335 9.16797 3.33335C12.3896 3.33335 15.0013 5.94503 15.0013 9.16669C15.0013 12.3883 12.3896 15 9.16797 15C5.94631 15 3.33464 12.3883 3.33464 9.16669Z" fill="#005098"/>
</svg>
