<svg width="20" height="20" viewBox="0 0 20 20" fill="none" xmlns="http://www.w3.org/2000/svg">
<path d="M6.66797 8.33335C6.20773 8.33335 5.83464 8.70645 5.83464 9.16669C5.83464 9.62692 6.20773 10 6.66797 10H11.668C12.1282 10 12.5013 9.62692 12.5013 9.16669C12.5013 8.70645 12.1282 8.33335 11.668 8.33335H6.66797Z" fill="#005098"/>
<path fill-rule="evenodd" clip-rule="evenodd" d="M1.66797 9.16669C1.66797 5.02455 5.02583 1.66669 9.16797 1.66669C13.3101 1.66669 16.668 5.02455 16.668 9.16669C16.668 10.9375 16.0542 12.565 15.0279 13.8481L18.0906 16.9108C18.416 17.2362 18.416 17.7638 18.0906 18.0893C17.7651 18.4147 17.2375 18.4147 16.912 18.0893L13.8494 15.0266C12.5663 16.053 10.9388 16.6667 9.16797 16.6667C5.02583 16.6667 1.66797 13.3088 1.66797 9.16669ZM9.16797 3.33335C5.94631 3.33335 3.33464 5.94503 3.33464 9.16669C3.33464 12.3883 5.94631 15 9.16797 15C12.3896 15 15.0013 12.3883 15.0013 9.16669C15.0013 5.94503 12.3896 3.33335 9.16797 3.33335Z" fill="#005098"/>
</svg>
