<svg width="20" height="20" viewBox="0 0 20 20" fill="none" xmlns="http://www.w3.org/2000/svg">
<path fill-rule="evenodd" clip-rule="evenodd" d="M9.94877 0C7.24834 0 4.80054 1.07438 3.0048 2.81045C3.0048 2.81045 1.21589 4.51923 0.485306 6.85559C-0.244684 9.17432 0.0266098 10.9631 0.170556 11.9122C0.176732 11.9529 0.182674 11.9921 0.188292 12.0297C0.188292 12.0297 0.338506 12.688 0.40337 12.7937L3.74563 2.81727H6.95815L2.59171 15.9623C2.56196 16.0401 2.55514 16.061 2.54758 16.0841C2.53692 16.1167 2.52479 16.1538 2.44491 16.3613C2.44491 16.3613 2.54392 16.5148 2.75217 16.7945C2.858 16.9377 3.11063 17.214 3.11063 17.214C4.92002 19.0524 7.16299 19.9153 9.94877 19.9153C12.7346 19.9153 15.254 18.7761 17.0634 16.9377L15.3701 11.8182L16.1383 9.50915L18.1593 15.611C18.3232 15.3756 18.4768 15.13 18.6202 14.8811L16.4899 8.45182L17.06 6.73963L17.4014 5.70276L17.6438 4.97627L19.8048 11.4908C19.8834 10.9894 19.9243 10.4778 19.9243 9.95254C19.9243 7.15915 18.767 4.6045 16.8962 2.79681C15.1004 1.05733 12.6492 0 9.94877 0ZM16.4011 2.79681L11.666 16.9173H8.31007L5.99542 11.7739L6.76014 9.46822L9.0748 14.6116L9.42644 13.5543L7.11178 8.41089L7.68191 6.6987L8.02672 5.66865L10.297 10.6893L13.0043 2.79681H16.4011Z" fill="#005098"/>
</svg>
