<svg width="24" height="24" viewBox="0 0 24 24" fill="none" xmlns="http://www.w3.org/2000/svg">
<g id="mecalux-symbol">
<path id="brand" d="M19.6802 3.36082H18.6651H18.0419H15.6051L12.3568 12.8413L9.63216 6.8105L9.22041 8.04944L8.53769 10.1044L11.3155 16.2829L10.8925 17.5531L8.11468 11.3765L7.1954 14.1472L9.97195 20.3245H10.2967H12.7084H13.4281H13.9988L19.6802 3.36082ZM3.60599 3.37396C5.75927 1.28714 8.69976 0 11.9381 0C15.1809 0 18.1207 1.26899 20.2759 3.36019C22.523 5.53087 23.9078 8.60009 23.9078 11.9559C23.9078 12.5848 23.8603 13.2011 23.7658 13.8024L21.1726 5.97763L20.8829 6.85178L20.4705 8.09074L19.7865 10.1463L22.3428 17.8685C22.172 18.1682 21.988 18.4623 21.7902 18.747L19.366 11.4172L18.4455 14.1892L20.4767 20.3357C18.3034 22.5415 15.281 23.9106 11.9375 23.9106C8.59463 23.9106 5.90508 22.8725 3.73429 20.6661C3.73429 20.6661 3.43203 20.3326 3.30374 20.1599C3.05406 19.8251 2.93517 19.6393 2.93517 19.6393C3.09975 19.215 3.02654 19.3871 3.11102 19.1606L8.35058 3.37457H4.49396L0.485279 15.3549C0.407057 15.2279 0.226209 14.4357 0.226209 14.4357C0.0635087 13.3394 -0.331346 11.1256 0.580401 8.2209C1.45961 5.427 3.60599 3.37396 3.60599 3.37396Z" fill="white"/>
</g>
</svg>
