<?xml version="1.0" encoding="UTF-8" standalone="no"?><!DOCTYPE svg PUBLIC "-//W3C//DTD SVG 1.1//EN" "http://www.w3.org/Graphics/SVG/1.1/DTD/svg11.dtd"><svg width="250px" height="60px" viewBox="0 0 299 70" version="1.1" xmlns="http://www.w3.org/2000/svg" xmlns:xlink="http://www.w3.org/1999/xlink" xml:space="preserve" xmlns:serif="http://www.serif.com/" style="fill-rule:evenodd;clip-rule:evenodd;stroke-linejoin:round;stroke-miterlimit:2;"><rect id="Artboard1" x="0" y="8" width="299" height="56" style="fill:none;"/><path d="M8.811,16.573c4.905,-4.753 11.597,-7.683 18.972,-7.683c7.381,0 14.077,2.889 18.983,7.651c5.116,4.942 8.268,11.931 8.268,19.571c0,1.432 -0.11,2.836 -0.323,4.206l-5.904,-17.817l-0.659,1.991l-0.939,2.823l-1.555,4.68l5.819,17.582c-0.391,0.681 -0.81,1.352 -1.258,2l-5.52,-16.689l-2.096,6.311l4.625,13.995c-4.948,5.023 -11.828,8.141 -19.441,8.141c-7.611,0 -13.734,-2.365 -18.678,-7.389c0,0 -0.688,-0.759 -0.981,-1.15c-0.569,-0.764 -0.838,-1.186 -0.838,-1.186c0.374,-0.966 0.206,-0.577 0.4,-1.089l11.929,-35.943l-8.78,0l-9.127,27.277c-0.178,-0.289 -0.59,-2.093 -0.59,-2.093c-0.37,-2.496 -1.269,-7.535 0.807,-14.148c2,-6.369 6.886,-11.041 6.886,-11.041m36.596,-0.031l-2.31,0l-1.419,0l-5.548,0l-7.397,21.585l-6.203,-13.731l-0.938,2.821l-1.555,4.68l6.327,14.068l-0.963,2.894l-6.326,-14.065l-2.092,6.307l6.32,14.065l9.17,0l12.934,-38.624Z" style="fill:#ffffff;fill-rule:nonzero;"/><path d="M282.46,32.226c1.745,-2.328 3.2,-4.944 4.8,-7.489l11.634,0l-10.471,14.761l10.035,15.852l-11.635,0l-4.728,-7.926l-5.453,7.855l-11.344,0.071l10.981,-15.852l-10.546,-14.835l11.853,0.074l4.874,7.489Z" style="fill:#ffffff;fill-rule:nonzero;"/><path d="M241.447,45.096c0.509,1.819 2.617,3.346 4.435,3.564c2.473,0.146 5.61,0.339 6.763,-2.18c0.316,-0.689 0.437,-1.892 0.437,-1.892l0,-19.925l10.253,0l0,20.071c-0.437,3.636 -2.253,6.98 -5.382,9.234c-5.961,3.71 -15.124,3.201 -21.232,0.074c-2.909,-1.528 -4.945,-4.727 -5.309,-7.999l0,-21.381l10.036,0l0,20.434l-0.001,0Z" style="fill:#ffffff;fill-rule:nonzero;"/><path d="M218.249,48.297l11.926,0l0,6.981l-23.052,0l0,-30.687l11.126,0.071l0,23.635Z" style="fill:#ffffff;fill-rule:nonzero;"/><path d="M184.143,45.096l3.638,-9.162l3.636,9.09c-2.256,0.146 -4.873,0 -7.274,0.072m9.599,-20.505l-11.924,0l-12,30.687l10.618,0l1.599,-4.364l10.69,0l1.672,4.364l10.036,0l0,-0.146l-10.691,-30.541Z" style="fill:#ffffff;fill-rule:nonzero;"/><path d="M137.314,30.917l-16.653,0l0,4.727l13.889,0.073l0,7.271l-13.889,0l0,5.382l16.653,0l0,6.834l-27.634,0l0,-30.686l27.634,0l0,6.399Z" style="fill:#ffffff;fill-rule:nonzero;"/><path d="M80.811,24.518c0,0 3.854,12.144 5.745,18.179l6.107,-18.179l12.581,0l0,30.614l-9.526,0.073l0,-19.634c-2.036,6.399 -3.709,13.088 -5.599,19.634l-7.199,0c-2.254,-6.399 -4.145,-12.944 -6.4,-19.27l0,19.197l-9.235,0l0,-30.614l13.526,0Z" style="fill:#ffffff;fill-rule:nonzero;"/><path d="M169.6,29.608c1.092,1.892 1.745,3.855 1.963,6.036l-10.834,0c-0.072,-1.818 -0.945,-3.71 -2.69,-4.508c-2.327,-0.874 -5.237,-0.437 -7.2,0.872c-3.489,2.764 -3.272,7.853 -2.399,11.853c0.436,1.599 1.599,3.345 3.2,4.072c2.399,0.801 5.963,1.382 8.07,-0.509c1.165,-1.163 1.746,-2.545 1.601,-4.29l10.325,0c-0.944,4.799 -3.998,9.598 -8.726,11.635c-6.399,2.69 -15.27,2.108 -20.579,-2.545c-4.363,-4 -4.363,-10.036 -4,-15.344c0.655,-5.09 3.782,-10.18 8.8,-12.217c7.417,-2.545 17.743,-2.472 22.469,4.945" style="fill:#ffffff;fill-rule:nonzero;"/></svg>