<svg width="20" height="20" viewBox="0 0 20 20" fill="none" xmlns="http://www.w3.org/2000/svg">
<path fill-rule="evenodd" clip-rule="evenodd" d="M3.33398 2.7085C3.67916 2.7085 3.95898 2.98832 3.95898 3.3335V5.91662C5.26954 3.98135 7.48595 2.7085 10.0007 2.7085C13.7195 2.7085 16.7873 5.49195 17.2359 9.08949C17.2786 9.43202 17.0356 9.74431 16.6931 9.78703C16.3506 9.82974 16.0383 9.58669 15.9955 9.24417C15.624 6.26452 13.0811 3.9585 10.0007 3.9585C7.80841 3.9585 5.8878 5.12624 4.82874 6.87516H7.50065C7.84583 6.87516 8.12565 7.15498 8.12565 7.50016C8.12565 7.84534 7.84583 8.12516 7.50065 8.12516H3.33398C2.98881 8.12516 2.70898 7.84534 2.70898 7.50016V3.3335C2.70898 2.98832 2.98881 2.7085 3.33398 2.7085ZM3.30823 10.2133C3.65075 10.1706 3.96305 10.4136 4.00576 10.7562C4.37732 13.7358 6.92016 16.0418 10.0007 16.0418C12.1929 16.0418 14.1135 14.8741 15.1726 13.1252H12.5007C12.1555 13.1252 11.8757 12.8453 11.8757 12.5002C11.8757 12.155 12.1555 11.8752 12.5007 11.8752H16.6673C17.0125 11.8752 17.2923 12.155 17.2923 12.5002V16.6668C17.2923 17.012 17.0125 17.2918 16.6673 17.2918C16.3221 17.2918 16.0423 17.012 16.0423 16.6668V14.0837C14.7318 16.019 12.5154 17.2918 10.0007 17.2918C6.28178 17.2918 3.21397 14.5084 2.76537 10.9108C2.72265 10.5683 2.9657 10.256 3.30823 10.2133Z" fill="#ffffff"/>
</svg>
