<svg xmlns="http://www.w3.org/2000/svg" 
     viewBox="0 0 980 770" 
     width="24" height="24" 
     fill="#2E4052">
	<g transform="rotate(180 500 415)">
  <path d="M896 853.334c23.565 0 42.667-19.103 42.667-42.667v-640c0-47.13-38.204-85.333-85.333-85.333h-3.708c2.364-6.677 3.708-13.845 3.708-21.333 0-35.345-28.655-64-64-64s-64 28.655-64 64c0 7.488 1.344 14.656 3.708 21.333h-434.083c2.363-6.677 3.708-13.845 3.708-21.333 0-35.345-28.654-64-64-64s-64 28.655-64 64c0 7.488 1.345 14.656 3.708 21.333h-3.708c-47.128 0-85.333 38.204-85.333 85.333v640c0 23.564 19.103 42.667 42.667 42.667s42.667-19.103 42.667-42.667v-128h682.667v128c0 23.564 19.102 42.667 42.667 42.667zM170.667 170.667h682.667v170.667h-682.667v-170.667zM170.667 597.334v-170.667h682.667v170.667h-682.667z"/>
	</g>
  </svg>
