<svg width="24" height="24" viewBox="0 0 24 24" fill="none" xmlns="http://www.w3.org/2000/svg">
<path fill-rule="evenodd" clip-rule="evenodd" d="M19 2C18.4477 2 18 2.44772 18 3V16C18 14.3431 16.6569 13 15 13H14.7638L12.3667 4.21065C12.0107 2.90546 10.8253 2 9.47241 2H7C5.34315 2 4 3.34315 4 5V11C2.34315 11 1 12.3431 1 14V17C1 18.3538 1.89669 19.4981 3.12853 19.8715C3.5019 21.1033 4.64623 22 6 22C7.30622 22 8.41746 21.1652 8.82929 20H10.1707C10.5825 21.1652 11.6938 22 13 22C14.3538 22 15.4981 21.1033 15.8715 19.8715C17.1033 19.4981 18 18.3538 18 17V20C18 20.5523 18.4477 21 19 21H22C22.5523 21 23 20.5523 23 20C23 19.4477 22.5523 19 22 19H20V3C20 2.44772 19.5523 2 19 2ZM13.9771 15C13.9919 15.0003 14.0068 15.0003 14.0217 15H15C15.5523 15 16 15.4477 16 16V17C16 17.2759 15.8883 17.5257 15.7076 17.7066C15.2246 16.6972 14.1937 16 13 16C11.6938 16 10.5825 16.8348 10.1707 18H8.82929C8.41746 16.8348 7.30622 16 6 16C4.80629 16 3.77542 16.6972 3.29237 17.7066C3.11171 17.5257 3 17.2759 3 17V14C3 13.4477 3.44772 13 4 13H4.58579L5.70711 14.1213C6.26972 14.6839 7.03278 15 7.82843 15H10.9759C10.9917 15.0004 11.0075 15.0004 11.0233 15H13.9771ZM9.65598 13L9.29219 11.7874C9.1335 11.2584 9.43368 10.7009 9.96267 10.5422C10.4917 10.3835 11.0491 10.6837 11.2078 11.2127L11.744 13H12.6908L10.4372 4.73688C10.3185 4.30182 9.92336 4 9.47241 4H7C6.44772 4 6 4.44772 6 5V11.5858L7.12132 12.7071C7.30886 12.8946 7.56321 13 7.82843 13H9.65598ZM14 19C14 19.5523 13.5523 20 13 20C12.4477 20 12 19.5523 12 19C12 18.4477 12.4477 18 13 18C13.5523 18 14 18.4477 14 19ZM6 20C6.55228 20 7 19.5523 7 19C7 18.4477 6.55228 18 6 18C5.44772 18 5 18.4477 5 19C5 19.5523 5.44772 20 6 20Z" fill="#2E4052"/>
</svg>
