<svg width="11" height="21" viewBox="0 0 11 21" fill="none" xmlns="http://www.w3.org/2000/svg">
<path fill-rule="evenodd" clip-rule="evenodd" d="M0.426056 1.70103C1.71641 0.587234 3.36883 -0.0174658 5.0733 0.000384186C6.77778 0.0182343 8.41717 0.657408 9.68392 1.79799C10.0943 2.16754 10.1275 2.79984 9.75793 3.21026C9.38838 3.62069 8.75608 3.65383 8.34565 3.28428C7.44084 2.46958 6.26984 2.01302 5.05236 2.00027C3.83488 1.98752 2.65458 2.41945 1.7329 3.21503C1.31482 3.5759 0.683356 3.52953 0.322482 3.11145C-0.0383926 2.69337 0.00797927 2.06191 0.426056 1.70103Z" fill="#2E4052"/>
<path fill-rule="evenodd" clip-rule="evenodd" d="M4.98255 3.00003C5.98483 2.99653 6.96503 3.29434 7.79596 3.85481C8.25383 4.16365 8.37464 4.78518 8.06581 5.24304C7.75698 5.70091 7.13544 5.82172 6.67758 5.51289C6.17902 5.1766 5.5909 4.99792 4.98953 5.00002C4.38816 5.00212 3.8013 5.1849 3.3051 5.52466C2.8494 5.83668 2.22704 5.72021 1.91502 5.26451C1.603 4.80882 1.71947 4.18646 2.17516 3.87443C3.00217 3.30817 3.98026 3.00353 4.98255 3.00003Z" fill="#2E4052"/>
<path fill-rule="evenodd" clip-rule="evenodd" d="M3 7H7C8.65685 7 10 8.34315 10 10V18C10 19.6569 8.65685 21 7 21H3C1.34315 21 0 19.6569 0 18V10C0 8.34315 1.34315 7 3 7ZM3 9C2.44772 9 2 9.44772 2 10V18C2 18.5523 2.44772 19 3 19H7C7.55228 19 8 18.5523 8 18V10C8 9.44772 7.55228 9 7 9H3Z" fill="#2E4052"/>
<path d="M6 17C6 17.5523 5.55228 18 5 18C4.44772 18 4 17.5523 4 17C4 16.4477 4.44772 16 5 16C5.55228 16 6 16.4477 6 17Z" fill="#2E4052"/>
</svg>
