<svg width="24" height="24" viewBox="0 0 24 24" fill="none" xmlns="http://www.w3.org/2000/svg">
<path fill-rule="evenodd" clip-rule="evenodd" d="M7.29289 10.7071C6.90237 10.3166 6.90237 9.68342 7.29289 9.29289L11.2929 5.29289C11.4804 5.10536 11.7348 5 12 5C12.2652 5 12.5196 5.10536 12.7071 5.29289L16.7071 9.29289C17.0976 9.68342 17.0976 10.3166 16.7071 10.7071C16.3166 11.0976 15.6834 11.0976 15.2929 10.7071L13 8.41421L13 18C13 18.5523 12.5523 19 12 19C11.4477 19 11 18.5523 11 18L11 8.41421L8.70711 10.7071C8.31658 11.0976 7.68342 11.0976 7.29289 10.7071Z" fill="#06A77D"/>
</svg>
