<svg width="24" height="20" viewBox="0 0 24 24" fill="none" xmlns="http://www.w3.org/2000/svg">
<path d="M8 7C7.44772 7 7 7.44772 7 8V9.5C7 10.0523 7.44772 10.5 8 10.5C8.55228 10.5 9 10.0523 9 9.5V9H9.5C10.0523 9 10.5 8.55228 10.5 8C10.5 7.44772 10.0523 7 9.5 7H8Z" fill="white"/>
<path d="M12.5 7C11.9477 7 11.5 7.44772 11.5 8C11.5 8.55228 11.9477 9 12.5 9H13V9.5C13 10.0523 13.4477 10.5 14 10.5C14.5523 10.5 15 10.0523 15 9.5V8C15 7.44772 14.5523 7 14 7H12.5Z" fill="white"/>
<path d="M9 12.5C9 11.9477 8.55228 11.5 8 11.5C7.44772 11.5 7 11.9477 7 12.5V14C7 14.5523 7.44772 15 8 15H9.5C10.0523 15 10.5 14.5523 10.5 14C10.5 13.4477 10.0523 13 9.5 13H9V12.5Z" fill="white"/>
<path d="M15 12.5C15 11.9477 14.5523 11.5 14 11.5C13.4477 11.5 13 11.9477 13 12.5V13H12.5C11.9477 13 11.5 13.4477 11.5 14C11.5 14.5523 11.9477 15 12.5 15H14C14.5523 15 15 14.5523 15 14V12.5Z" fill="white"/>
<path fill-rule="evenodd" clip-rule="evenodd" d="M2 11C2 6.02944 6.02944 2 11 2C15.9706 2 20 6.02944 20 11C20 13.125 19.2635 15.078 18.0319 16.6177L21.7071 20.2929C22.0976 20.6834 22.0976 21.3166 21.7071 21.7071C21.3166 22.0976 20.6834 22.0976 20.2929 21.7071L16.6177 18.0319C15.078 19.2635 13.125 20 11 20C6.02944 20 2 15.9706 2 11ZM11 4C7.13401 4 4 7.13401 4 11C4 14.866 7.13401 18 11 18C14.866 18 18 14.866 18 11C18 7.13401 14.866 4 11 4Z" fill="white"/>
</svg>
